<svg width="315" height="277" viewBox="0 0 315 277" fill="none" xmlns="http://www.w3.org/2000/svg">
<path d="M130.173 38.6205C105.422 75.8315 104.407 77.241 103.167 76.6208C102.49 76.2261 99.2766 74.3092 96.0629 72.3359C92.8492 70.419 90.143 68.7839 90.0302 68.7839C89.9174 68.7839 72.3268 95.0571 50.9023 127.137L12 185.491H156.333H300.667L251.616 111.915L202.565 38.3386H192.417H182.268L169.47 19.1694C162.479 8.62625 156.559 8.05631e-05 156.333 8.05631e-05C156.108 8.05631e-05 144.381 17.3652 130.173 38.6205ZM164.959 42.849L173.247 55.2527H183.396H193.544L221.058 96.523C236.224 119.244 248.797 138.244 249.079 138.695C249.699 139.71 252.292 141.684 214.687 113.099C197.66 100.131 183.396 89.4191 183.058 89.25C182.663 89.1372 176.517 93.3093 169.357 98.6091C162.197 103.909 156.108 108.25 155.77 108.25C155.431 108.25 154.134 107.63 152.894 106.784C151.654 105.995 143.873 101.315 135.585 96.2975C127.298 91.336 120.194 86.9384 119.799 86.5437C119.179 85.9799 122.336 80.8493 137.502 58.1281C147.651 42.9054 156.108 30.4454 156.333 30.4454C156.559 30.4454 160.449 36.027 164.959 42.849ZM133.499 114.847L149.85 124.769L158.87 143.882C163.832 154.369 168.455 164.236 169.132 165.758L170.428 168.577H107.001H43.5729L69.2823 130.013L94.9917 91.4488L106.042 98.2144C112.131 101.879 124.535 109.378 133.499 114.847ZM219.197 137.793C238.705 152.621 255.844 165.645 257.198 166.716L259.678 168.577H224.441H189.203L178.096 145.066C172.007 132.155 167.215 121.387 167.44 121.161C169.921 118.85 182.606 110.054 183.058 110.336C183.396 110.562 199.633 122.909 219.197 137.793Z" fill="#FFF1D6"/>
<path d="M26.088 246.28H25.704H26.088L31.176 225.256L35.304 209.8H47.304L51.624 277H39.048L37.224 240.328H36.744L29.832 267.4H21.96L15.048 240.328H14.568L12.744 277H0.168L4.488 209.8H16.488L20.616 225.256L25.704 246.28H26.088ZM89.7165 209.8C94.1965 213.448 97.5245 218.344 99.7005 224.488C101.877 230.632 102.965 236.968 102.965 243.496C102.965 249.96 101.909 256.104 99.7965 261.928C97.6845 267.752 94.3245 272.776 89.7165 277H69.9405C65.3325 272.776 61.9725 267.752 59.8605 261.928C57.7485 256.104 56.6925 249.96 56.6925 243.496C56.6925 236.968 57.7805 230.632 59.9565 224.488C62.1325 218.344 65.4605 213.448 69.9405 209.8H89.7165ZM76.3725 265.864H83.2845C84.8845 264.008 86.2285 261 87.3165 256.84C88.4685 252.616 89.0445 248.168 89.0445 243.496C89.0445 238.824 88.5005 234.44 87.4125 230.344C86.3245 226.184 84.9805 223.176 83.3805 221.32H76.3725C74.7725 223.176 73.3965 226.184 72.2445 230.344C71.1565 234.44 70.6125 238.824 70.6125 243.496C70.6125 248.168 71.1565 252.616 72.2445 256.84C73.3965 261 74.7725 264.008 76.3725 265.864ZM129.076 265.864H145.972V277H121.588C117.364 273.032 114.164 268.008 111.988 261.928C109.812 255.848 108.724 249.608 108.724 243.208C108.724 236.744 109.94 230.536 112.372 224.584C114.804 218.632 118.42 213.704 123.22 209.8H145.972V221.32H129.076C127.348 223.304 125.844 226.504 124.564 230.92C123.348 235.336 122.74 239.56 122.74 243.592C122.74 247.624 123.348 251.848 124.564 256.264C125.844 260.68 127.348 263.88 129.076 265.864ZM153.014 277V209.8H166.166V238.12H166.646L178.646 209.8H192.182L178.166 241.864L192.854 277H178.262L166.838 247.624H166.166V277H153.014ZM197.452 277V209.8H231.916V221.32H210.604V237.352H229.612V248.488H210.604V265.864H232.3V277H197.452ZM244.94 209.8H267.98V221.32H249.548L249.26 221.896L264.62 249.928C267.756 255.56 269.324 259.848 269.324 262.792C269.324 269.256 267.18 273.992 262.892 277H237.452V265.864H257.324L257.612 265.288L240.332 234.28C237.836 229.8 236.588 226.152 236.588 223.336C236.588 216.68 239.372 212.168 244.94 209.8ZM286.862 221.32H272.366V209.8H314.414V221.32H299.918V277H286.862V221.32Z" fill="#FFF1D6"/>
</svg>
