<svg width="56" height="36" viewBox="0 0 56 36" fill="none" xmlns="http://www.w3.org/2000/svg">
<path d="M22.925 7.49544C18.1234 14.7173 17.9266 14.9909 17.6859 14.8705C17.5547 14.7939 16.9312 14.4219 16.3078 14.0389C15.6844 13.6669 15.1594 13.3495 15.1375 13.3495C15.1156 13.3495 11.7031 18.4486 7.54687 24.6748L0 36H28H56L46.4844 21.7204L36.9687 7.44073H35H33.0312L30.5484 3.72036C29.1922 1.67416 28.0437 -1.04867e-06 28 -1.04867e-06C27.9562 -1.04867e-06 25.6812 3.37021 22.925 7.49544ZM29.6734 8.31611L31.2812 10.7234H33.25H35.2187L40.5562 18.7331C43.4984 23.1429 45.9375 26.8304 45.9922 26.9179C46.1125 27.1149 46.6156 27.4979 39.3203 21.9502C36.0172 19.4334 33.25 17.3544 33.1844 17.3216C33.1078 17.2997 31.9156 18.1094 30.5266 19.138C29.1375 20.1666 27.9562 21.0091 27.8906 21.0091C27.825 21.0091 27.5734 20.8888 27.3328 20.7246C27.0922 20.5714 25.5828 19.6632 23.975 18.6894C22.3672 17.7264 20.9891 16.8729 20.9125 16.7964C20.7922 16.6869 21.4047 15.6912 24.3469 11.2815C26.3156 8.32705 27.9562 5.90881 28 5.90881C28.0437 5.90881 28.7984 6.9921 29.6734 8.31611ZM23.5703 22.2894L26.7422 24.2152L28.4922 27.9246C29.4547 29.9599 30.3516 31.8748 30.4828 32.1702L30.7344 32.7173H18.4297H6.125L11.1125 25.2328L16.1 17.7483L18.2437 19.0614C19.425 19.7726 21.8312 21.228 23.5703 22.2894ZM40.1953 26.7429C43.9797 29.6207 47.3047 32.1483 47.5672 32.3562L48.0484 32.7173H41.2125H34.3766L32.2219 28.1544C31.0406 25.6486 30.1109 23.5587 30.1547 23.5149C30.6359 23.0663 33.0969 21.3593 33.1844 21.414C33.25 21.4578 36.4 23.8541 40.1953 26.7429Z" fill="white"/>
</svg>
